<svg xmlns="http://www.w3.org/2000/svg" version="1.1" xmlns:xlink="http://www.w3.org/1999/xlink" xmlns:svgjs="http://svgjs.dev/svgjs" width="1000" height="285" viewBox="0 0 1000 285"><g transform="matrix(1,0,0,1,-0.6060606060605096,-0.6081117540001912)"><svg viewBox="0 0 396 113" data-background-color="#a62a6c" preserveAspectRatio="xMidYMid meet" height="285" width="1000" xmlns="http://www.w3.org/2000/svg" xmlns:xlink="http://www.w3.org/1999/xlink"><g id="tight-bounds" transform="matrix(1,0,0,1,0.23999999999995225,0.24111097614743926)"><svg viewBox="0 0 395.52 112.5177780477051" height="112.5177780477051" width="395.52"><g><svg viewBox="0 0 542.4734498089358 154.3231877588358" height="112.5177780477051" width="395.52"><g><rect width="10.070205740681315" height="133.9998735966736" x="110.52144893558096" y="10.161657081081088" fill="#ffffff" opacity="1" stroke-width="0" stroke="transparent" fill-opacity="1" class="rect-qz-0" data-fill-palette-color="primary" rx="1%" id="qz-0" data-palette-color="#ffffff"></rect></g><g transform="matrix(1,0,0,1,146.9534498089359,21.328313214137225)"><svg viewBox="0 0 395.52 111.66656133056134" height="111.66656133056134" width="395.52"><g id="textblocktransform"><svg viewBox="0 0 395.52 111.66656133056134" height="111.66656133056134" width="395.52" id="textblock"><g><svg viewBox="0 0 395.52 111.66656133056134" height="111.66656133056134" width="395.52"><g transform="matrix(1,0,0,1,0,0)"><svg width="395.52" viewBox="0.78 -32.76 117.42999999999999 33.15" height="111.66656133056134" data-palette-color="#ffffff"><path d="M7.13-32.08L7.13-32.08Q7.37-32.08 12.26-32.32L12.26-32.32Q12.35-32.13 12.33-31.52 12.3-30.91 12.16-30.91L12.16-30.91Q11.82-30.91 11.33-30.83 10.84-30.76 10.28-30.4 9.72-30.03 9.72-29.49L9.72-29.49Q9.72-28.03 10.84-25.88L10.84-25.88 20.95-5.86Q21.09-5.62 21.34-5.74 21.58-5.86 21.68-6.1L21.68-6.1 25.73-14.55 20.61-25.1Q19.19-27.98 17.77-29.79L17.77-29.79Q17.38-30.27 16.46-30.59 15.53-30.91 14.94-30.91L14.94-30.91Q14.75-30.91 14.75-31.64L14.75-31.64Q14.75-32.13 14.94-32.32L14.94-32.32Q20.56-32.08 21.09-32.08L21.09-32.08Q21.29-32.08 26.17-32.32L26.17-32.32Q26.27-32.13 26.25-31.52 26.22-30.91 26.07-30.91L26.07-30.91Q25.73-30.91 25.27-30.83 24.8-30.76 24.24-30.42 23.68-30.08 23.68-29.49L23.68-29.49Q23.68-28.22 24.8-25.88L24.8-25.88 28.03-19.29 31.45-26.46Q32.13-27.98 32.13-29.3L32.13-29.3Q32.13-30.13 31.08-30.52 30.03-30.91 29.25-30.91L29.25-30.91Q29.05-30.91 29.05-31.52 29.05-32.13 29.25-32.32L29.25-32.32Q33.15-32.08 34.18-32.08L34.18-32.08Q34.38-32.08 39.26-32.32L39.26-32.32Q39.36-32.13 39.33-31.52 39.31-30.91 39.16-30.91L39.16-30.91Q38.67-30.91 37.48-30.52 36.28-30.13 35.79-29.54L35.79-29.54Q34.91-28.47 32.96-24.51L32.96-24.51 29.2-16.8 34.52-5.86Q34.81-5.32 35.11-6.1L35.11-6.1 43.85-26.17Q44.68-28.17 44.68-29.25L44.68-29.25Q44.68-30.08 43.68-30.49 42.68-30.91 41.89-30.91L41.89-30.91Q41.7-30.91 41.7-31.52 41.7-32.13 41.89-32.32L41.89-32.32Q45.8-32.08 46.88-32.08L46.88-32.08Q48-32.08 48.73-32.13 49.46-32.18 50.24-32.23 51.03-32.28 51.71-32.32L51.71-32.32Q51.81-32.03 51.81-31.59L51.81-31.59Q51.81-30.91 51.61-30.91L51.61-30.91Q51.12-30.91 50.05-30.54 48.97-30.18 48.44-29.54L48.44-29.54Q47.02-27.88 45.61-24.61L45.61-24.61 35.25-1.17Q34.52 0.39 33.35 0.39L33.35 0.39Q33.06 0.39 32.91 0.15L32.91 0.15 26.95-12.06 21.68-1.17Q20.95 0.39 19.78 0.39L19.78 0.39Q19.48 0.39 19.34 0.15L19.34 0.15 6.64-25.1Q5.22-27.98 3.81-29.79L3.81-29.79Q3.42-30.27 2.49-30.59 1.56-30.91 0.98-30.91L0.98-30.91Q0.78-30.91 0.78-31.54L0.78-31.54Q0.78-32.13 0.98-32.32L0.98-32.32Q6.59-32.08 7.13-32.08ZM63.4-32.13Q66.75-32.03 68.89-32.03 71.04-32.03 74.41-32.13 77.78-32.23 79.64-32.23L79.64-32.23Q80.86-32.23 83.01-32.76L83.01-32.76 83.93-25.78Q83.59-25.44 82.76-25.44L82.76-25.44Q82.32-25.44 82.27-25.68L82.27-25.68Q81.59-28.42 80.59-29.22 79.59-30.03 76.8-30.03L76.8-30.03Q71.63-30.03 71.43-29.3L71.43-29.3Q70.99-27.73 70.99-24.41L70.99-24.41 70.99-6.79Q70.99-3.96 71.43-2.25L71.43-2.25Q71.53-1.9 72.8-1.59 74.07-1.27 74.56-1.27L74.56-1.27Q74.75-1.27 74.75-0.54L74.75-0.54Q74.75-0.15 74.66 0.15L74.66 0.15Q69.77-0.1 68.99-0.1L68.99-0.1Q68.75-0.1 63.13 0.15L63.13 0.15Q62.94-0.05 62.94-0.59L62.94-0.59Q62.94-1.27 63.13-1.27L63.13-1.27Q63.77-1.27 65.01-1.56 66.26-1.86 66.4-2.25L66.4-2.25Q66.75-3.56 66.75-6.59L66.75-6.59 66.75-24.27Q66.75-28.52 66.31-29.3L66.31-29.3Q65.92-30.03 61.03-30.03L61.03-30.03Q58.25-30.03 57.25-29.22 56.25-28.42 55.56-25.68L55.56-25.68Q55.52-25.44 55.08-25.44L55.08-25.44Q54.25-25.44 53.9-25.78L53.9-25.78 54.83-32.76Q56.98-32.23 58.2-32.23L58.2-32.23Q60.06-32.23 63.4-32.13ZM92.87-32.03L92.87-32.03Q94.72-32.03 97.58-32.08 100.43-32.13 101.36-32.13L101.36-32.13Q109.32-32.13 113.76-27.44 118.21-22.75 118.21-16.41L118.21-16.41Q118.21-9.33 113.72-4.59 109.22 0.15 101.31 0.15L101.31 0.15Q100.73 0.15 97.82 0.05 94.92-0.05 92.96 0L92.96 0 87.06 0.15Q86.91 0 86.91-0.59L86.91-0.59Q86.91-1.27 87.06-1.27L87.06-1.27Q87.69-1.27 88.94-1.61 90.18-1.95 90.42-2.39L90.42-2.39Q90.77-2.98 90.77-6.98L90.77-6.98 90.77-25.44Q90.77-28.32 90.42-29.64L90.42-29.64Q90.28-30.03 88.98-30.37 87.69-30.71 87.06-30.71L87.06-30.71Q86.86-30.71 86.86-31.3L86.86-31.3Q86.86-31.93 87.06-32.13L87.06-32.13Q89.59-32.03 92.87-32.03ZM95.01-26.12L95.01-26.12 95.01-6.79Q95.01-4.74 95.75-3.08L95.75-3.08Q95.94-2.59 98.36-2.34 100.78-2.1 102.09-2.1L102.09-2.1Q113.33-2.1 113.33-16.6L113.33-16.6Q113.33-22.17 110.37-26.07 107.42-29.98 101.75-29.98L101.75-29.98 101.51-29.98Q96.24-29.98 95.65-29.2L95.65-29.2Q95.01-28.32 95.01-26.12Z" opacity="1" transform="matrix(1,0,0,1,0,0)" fill="#ffffff" class="wordmark-text-0" data-fill-palette-color="primary" id="text-0"></path></svg></g></svg></g></svg></g></svg></g><g><svg viewBox="0 0 84.15965380290737 154.3231877588358" height="154.3231877588358" width="84.15965380290737"><g><svg xmlns="http://www.w3.org/2000/svg" xmlns:xlink="http://www.w3.org/1999/xlink" version="1.1" x="0" y="0" viewBox="23.82515242119298 1 53.49579256163027 98.095" enable-background="new 0 0 100 100" xml:space="preserve" height="154.3231877588358" width="84.15965380290737" class="icon-icon-0" data-fill-palette-color="accent" id="icon-0"><path d="M73.243 54.003L63.119 40.067l-1.987 12.576 4.83 6.648c0.881 1.213 2.253 1.855 3.645 1.855 0.917 0 1.843-0.279 2.641-0.859C74.258 58.827 74.704 56.014 73.243 54.003z" fill="#ffffff" data-fill-palette-color="accent"></path><path d="M63 10c0 4.971-4.029 9-9 9s-9-4.029-9-9 4.029-9 9-9S63 5.029 63 10" fill="#ffffff" data-fill-palette-color="accent"></path><path d="M46.069 74.165l-11.707 16.21c-1.779 2.462-1.224 5.9 1.238 7.679 0.974 0.703 2.1 1.041 3.216 1.041 1.706 0 3.388-0.791 4.463-2.28l9.575-13.256L46.069 74.165z" fill="#ffffff" data-fill-palette-color="accent"></path><path d="M76.279 90.374L55.627 61.779l4.266-26.923c0.049-0.308 0.081-0.614 0.098-0.919 0.417-5.645-3.55-10.762-9.242-11.663-3.587-0.568-6.71 1.061-9.439 3.043L28.339 34.74c-0.966 0.702-1.613 1.758-1.8 2.937l-2.658 16.791c-0.388 2.455 1.287 4.76 3.741 5.148 0.238 0.038 0.475 0.057 0.709 0.057 2.175 0 4.088-1.581 4.439-3.797l2.367-14.951 6.295-4.574L38.836 52.79c-0.447 2.826 0.2 4.805 1.506 6.614l27.019 37.411c1.075 1.488 2.758 2.279 4.464 2.279 1.115 0 2.242-0.338 3.216-1.041C77.503 96.275 78.058 92.837 76.279 90.374z" fill="#ffffff" data-fill-palette-color="accent"></path></svg></g></svg></g></svg></g><defs></defs></svg><rect width="395.52" height="112.5177780477051" fill="none" stroke="none" visibility="hidden"></rect></g></svg></g></svg>