<svg width="63" height="36" viewBox="0 0 63 36" fill="none" xmlns="http://www.w3.org/2000/svg">
<path d="M0.443228 29.5055L0 31.5H8L8.08579 31.1569C9.02343 27.4063 10.511 23.8151 12.5 20.5L6 15.75L5.65853 16.3262C3.23482 20.4162 1.47456 24.8645 0.443228 29.5055Z" fill="#FF1B1B"/>
<path d="M7.72812 14.2804L6.49999 15.5L13 20C15.7852 17.3366 19.0318 15.1982 22.5783 13.6901L19.5 6C15.1368 8.07597 11.1566 10.8757 7.72812 14.2804Z" fill="#FF6D1B"/>
<path d="M22.0825 5.50896L20.0657 5.83639L23 13.3703L23.3939 13.3106C27.2139 12.7315 31.1009 12.7516 34.9147 13.3703L36.9178 5.57284L36.2561 5.46921C31.5591 4.73367 26.7753 4.74708 22.0825 5.50896Z" fill="#D0C91C"/>
<path d="M38.6683 6.28262L37.5 5.74999L35.5 13.5L35.6841 13.5864C39.1794 15.2264 42.3808 17.4308 45.1598 20.1111L51.2503 14.8462L51.0637 14.6683C47.4289 11.2008 43.2392 8.36638 38.6683 6.28262Z" fill="#58E600"/>
<path d="M52.2012 16.4049L51.4612 15.0955L45.516 20.4485L45.6819 20.7609C47.4947 24.1755 48.7922 27.8397 49.5323 31.6342L57.5 31.6342L57.3386 30.7199C56.4507 25.6913 54.7134 20.8506 52.2012 16.4049Z" fill="#008D28"/>
<path d="M17.1506 31V22.8182H18.3651V24.054H18.4503C18.5994 23.6491 18.8693 23.3207 19.2599 23.0685C19.6506 22.8164 20.0909 22.6903 20.581 22.6903C20.6733 22.6903 20.7887 22.6921 20.9272 22.6957C21.0657 22.6992 21.1705 22.7045 21.2415 22.7116V23.9901C21.1989 23.9794 21.1012 23.9634 20.9485 23.9421C20.7994 23.9173 20.6413 23.9048 20.4744 23.9048C20.0767 23.9048 19.7216 23.9883 19.4091 24.1552C19.1001 24.3185 18.8551 24.5458 18.674 24.837C18.4964 25.1246 18.4077 25.4531 18.4077 25.8224V31H17.1506ZM22.7316 34.0682V22.8182H23.9461V24.1179H24.0953C24.1876 23.9759 24.3154 23.7947 24.4788 23.5746C24.6457 23.3509 24.8836 23.152 25.1926 22.978C25.5051 22.8004 25.9276 22.7116 26.4603 22.7116C27.1492 22.7116 27.7565 22.8839 28.282 23.2283C28.8076 23.5728 29.2178 24.0611 29.5125 24.6932C29.8073 25.3253 29.9546 26.071 29.9546 26.9304C29.9546 27.7969 29.8073 28.5479 29.5125 29.1836C29.2178 29.8157 28.8094 30.3058 28.2874 30.6538C27.7654 30.9982 27.1634 31.1705 26.4816 31.1705C25.9561 31.1705 25.5352 31.0835 25.2192 30.9094C24.9031 30.7319 24.6599 30.5312 24.4894 30.3075C24.319 30.0803 24.1876 29.892 24.0953 29.7429H23.9887V34.0682H22.7316ZM23.9674 26.9091C23.9674 27.527 24.058 28.0721 24.2391 28.5444C24.4202 29.0131 24.6847 29.3807 25.0328 29.647C25.3808 29.9098 25.8069 30.0412 26.3112 30.0412C26.8367 30.0412 27.2753 29.9027 27.6269 29.6257C27.982 29.3452 28.2483 28.9687 28.4259 28.4964C28.607 28.0206 28.6975 27.4915 28.6975 26.9091C28.6975 26.3338 28.6088 25.8153 28.4312 25.3537C28.2572 24.8885 27.9926 24.521 27.6375 24.2511C27.286 23.9776 26.8438 23.8409 26.3112 23.8409C25.7998 23.8409 25.3701 23.9705 25.0221 24.2298C24.6741 24.4854 24.4113 24.8441 24.2338 25.3058C24.0562 25.7638 23.9674 26.2983 23.9674 26.9091ZM31.8722 31V22.8182H33.0867V24.0966H33.1933C33.3637 23.6598 33.6389 23.3207 34.0189 23.0792C34.3989 22.8342 34.8552 22.7116 35.3879 22.7116C35.9276 22.7116 36.3769 22.8342 36.7355 23.0792C37.0977 23.3207 37.3801 23.6598 37.5825 24.0966H37.6677C37.8772 23.674 38.1915 23.3384 38.6105 23.0898C39.0296 22.8377 39.532 22.7116 40.118 22.7116C40.8495 22.7116 41.4479 22.9407 41.9131 23.3988C42.3783 23.8533 42.6109 24.5618 42.6109 25.5241V31H41.3538V25.5241C41.3538 24.9205 41.1887 24.489 40.8584 24.2298C40.5281 23.9705 40.1393 23.8409 39.6919 23.8409C39.1166 23.8409 38.6709 24.0149 38.3548 24.3629C38.0388 24.7074 37.8808 25.1442 37.8808 25.6733V31H36.6024V25.3963C36.6024 24.9311 36.4514 24.5565 36.1496 24.2724C35.8477 23.9847 35.4589 23.8409 34.983 23.8409C34.6563 23.8409 34.3509 23.9279 34.0669 24.1019C33.7863 24.2759 33.559 24.5174 33.385 24.8263C33.2146 25.1317 33.1294 25.4851 33.1294 25.8864V31H31.8722Z" fill="black"/>
</svg>
