<svg width="29" height="38" viewBox="0 0 29 38" fill="none" xmlns="http://www.w3.org/2000/svg">
<path d="M27.5346 26.9787C27.5346 29.3826 27.1608 31.1566 26.5136 32.4718C25.8715 33.7767 24.9475 34.6564 23.7914 35.2588C22.6242 35.867 21.2065 36.1993 19.5772 36.3761C17.9482 36.5529 16.1414 36.5712 14.2042 36.5712C10.3015 36.5712 6.88045 36.4893 4.42342 35.2554C3.21772 34.6499 2.24913 33.767 1.5749 32.4629C0.895953 31.1497 0.5 29.3789 0.5 26.9787C0.5 17.3323 6.65561 9.72348 14.0173 9.72348C21.379 9.72348 27.5346 17.3323 27.5346 26.9787Z" stroke="#1B9910"/>
<rect x="8.22351" y="9.22348" width="11.5876" height="1.86897" rx="0.934487" fill="#1B9910"/>
<path d="M14.8193 11.0077C14.3712 10.1571 7.67614 9.12923 7.19075 8.30001C6.90186 7.80648 6.58904 7.26774 6.45421 6.70767C6.1664 5.51216 5.98071 4.37908 5.98071 3.1477C5.98071 2.56263 6.11251 2.07237 6.23675 1.51327C6.32408 1.1203 7.60934 1.18315 7.87469 1.15903C8.75039 1.07942 9.78407 0.900749 10.656 1.07135C11.8804 1.3109 12.9116 2.04514 13.7355 2.9548C14.5448 3.84847 14.831 5.09888 14.2791 6.20261C14.1899 6.38106 14.1179 6.18349 14.1529 6.06933C14.36 5.39351 15.0871 4.80318 15.6049 4.37879C16.5308 3.61994 17.5518 3.03523 18.7054 2.70227C19.439 2.49053 20.5259 2.19644 21.2307 2.65317C21.9741 3.13492 22.3011 4.40724 22.3671 5.22055C22.4419 6.14173 22.0336 6.88374 21.371 7.50735C20.5871 8.24517 19.5276 8.75049 18.6212 9.32416C18.2179 9.57942 17.7794 9.78786 17.3446 9.98354C17.1208 10.0842 16.7485 10.0657 16.4958 10.1379C16.266 10.2035 16.0651 10.2734 15.8294 10.3273C15.4224 10.4203 15.0052 10.6359 14.8193 11.0077Z" stroke="#1B9910" stroke-linecap="round"/>
<path d="M9.54794 20.7273V28H8.66726V21.6506H8.62464L6.84908 22.8295V21.9347L8.66726 20.7273H9.54794ZM14.0117 28.0994C13.4767 28.0994 13.021 27.9538 12.6445 27.6626C12.2681 27.3691 11.9805 26.9441 11.7816 26.3878C11.5827 25.8291 11.4833 25.1544 11.4833 24.3636C11.4833 23.5777 11.5827 22.9065 11.7816 22.3501C11.9828 21.7914 12.2717 21.3653 12.6481 21.0717C13.0269 20.7758 13.4814 20.6278 14.0117 20.6278C14.542 20.6278 14.9954 20.7758 15.3718 21.0717C15.7506 21.3653 16.0394 21.7914 16.2383 22.3501C16.4395 22.9065 16.5401 23.5777 16.5401 24.3636C16.5401 25.1544 16.4407 25.8291 16.2418 26.3878C16.043 26.9441 15.7553 27.3691 15.3789 27.6626C15.0025 27.9538 14.5468 28.0994 14.0117 28.0994ZM14.0117 27.3182C14.542 27.3182 14.954 27.0625 15.2475 26.5511C15.5411 26.0398 15.6879 25.3106 15.6879 24.3636C15.6879 23.7339 15.6204 23.1977 15.4854 22.755C15.3529 22.3123 15.1611 21.9749 14.9102 21.7429C14.6616 21.5109 14.3621 21.3949 14.0117 21.3949C13.4862 21.3949 13.0754 21.6541 12.7795 22.1726C12.4835 22.6887 12.3356 23.419 12.3356 24.3636C12.3356 24.9934 12.4019 25.5284 12.5344 25.9688C12.667 26.4091 12.8576 26.7441 13.1062 26.9737C13.3571 27.2034 13.659 27.3182 14.0117 27.3182ZM18.0174 28V20.7273H18.8981V27.2188H22.2788V28H18.0174Z" fill="black"/>
</svg>
