<svg width="29" height="38" viewBox="0 0 29 38" fill="none" xmlns="http://www.w3.org/2000/svg">
<path d="M27.5346 26.9787C27.5346 29.3826 27.1608 31.1566 26.5136 32.4718C25.8715 33.7767 24.9475 34.6564 23.7914 35.2588C22.6242 35.867 21.2065 36.1993 19.5772 36.3761C17.9482 36.5529 16.1414 36.5712 14.2042 36.5712C10.3015 36.5712 6.88045 36.4893 4.42342 35.2554C3.21772 34.6499 2.24913 33.767 1.5749 32.4629C0.895953 31.1497 0.5 29.3789 0.5 26.9787C0.5 17.3323 6.65561 9.72348 14.0173 9.72348C21.379 9.72348 27.5346 17.3323 27.5346 26.9787Z" stroke="#1B9910"/>
<rect x="8.69069" y="9.69072" width="10.6532" height="0.934487" rx="0.467244" fill="#1B9910" stroke="#1B9910" stroke-width="0.934487"/>
<path d="M14.8193 11.0077C14.3712 10.1571 7.67614 9.12923 7.19075 8.30001C6.90186 7.80648 6.58904 7.26774 6.45421 6.70767C6.1664 5.51216 5.98071 4.37908 5.98071 3.1477C5.98071 2.56263 6.11251 2.07237 6.23675 1.51327C6.32408 1.1203 7.60934 1.18315 7.87469 1.15903C8.75039 1.07942 9.78407 0.900749 10.656 1.07135C11.8804 1.3109 12.9116 2.04514 13.7355 2.9548C14.5448 3.84847 14.831 5.09888 14.2791 6.20261C14.1899 6.38106 14.1179 6.18349 14.1529 6.06933C14.36 5.39351 15.0871 4.80318 15.6049 4.37879C16.5308 3.61994 17.5518 3.03523 18.7054 2.70227C19.439 2.49053 20.5259 2.19644 21.2307 2.65317C21.9741 3.13492 22.3011 4.40724 22.3671 5.22055C22.4419 6.14173 22.0336 6.88374 21.371 7.50735C20.5871 8.24517 19.5276 8.75049 18.6212 9.32416C18.2179 9.57942 17.7794 9.78786 17.3446 9.98354C17.1208 10.0842 16.7485 10.0657 16.4958 10.1379C16.266 10.2035 16.0651 10.2734 15.8294 10.3273C15.4224 10.4203 15.0052 10.6359 14.8193 11.0077Z" stroke="#1B9910" stroke-linecap="round"/>
<path d="M5.788 28V27.3608L8.18857 24.733C8.47029 24.4252 8.7023 24.1577 8.88459 23.9304C9.06688 23.7008 9.20182 23.4853 9.28942 23.2841C9.37938 23.0805 9.42436 22.8674 9.42436 22.6449C9.42436 22.3892 9.36281 22.1679 9.2397 21.9808C9.11896 21.7938 8.95324 21.6494 8.74254 21.5476C8.53184 21.4458 8.2951 21.3949 8.03232 21.3949C7.75296 21.3949 7.50911 21.4529 7.30078 21.5689C7.09482 21.6825 6.93501 21.8423 6.82138 22.0483C6.71011 22.2543 6.65447 22.4957 6.65447 22.7727H5.81641C5.81641 22.3466 5.91465 21.9725 6.11115 21.6506C6.30765 21.3286 6.57517 21.0777 6.91371 20.8977C7.25462 20.7178 7.63696 20.6278 8.06072 20.6278C8.48686 20.6278 8.86447 20.7178 9.19354 20.8977C9.52261 21.0777 9.78066 21.3203 9.96768 21.6257C10.1547 21.9311 10.2482 22.2708 10.2482 22.6449C10.2482 22.9124 10.1997 23.174 10.1026 23.4297C10.0079 23.683 9.84221 23.9659 9.60547 24.2784C9.37109 24.5885 9.04557 24.9673 8.62891 25.4148L6.99538 27.1619V27.2188H10.3761V28H5.788ZM14.2148 28.0994C13.6798 28.0994 13.2241 27.9538 12.8477 27.6626C12.4712 27.3691 12.1836 26.9441 11.9847 26.3878C11.7859 25.8291 11.6864 25.1544 11.6864 24.3636C11.6864 23.5777 11.7859 22.9065 11.9847 22.3501C12.186 21.7914 12.4748 21.3653 12.8512 21.0717C13.23 20.7758 13.6845 20.6278 14.2148 20.6278C14.7451 20.6278 15.1985 20.7758 15.5749 21.0717C15.9537 21.3653 16.2425 21.7914 16.4414 22.3501C16.6426 22.9065 16.7433 23.5777 16.7433 24.3636C16.7433 25.1544 16.6438 25.8291 16.445 26.3878C16.2461 26.9441 15.9585 27.3691 15.582 27.6626C15.2056 27.9538 14.7499 28.0994 14.2148 28.0994ZM14.2148 27.3182C14.7451 27.3182 15.1571 27.0625 15.4506 26.5511C15.7442 26.0398 15.891 25.3106 15.891 24.3636C15.891 23.7339 15.8235 23.1977 15.6886 22.755C15.556 22.3123 15.3642 21.9749 15.1133 21.7429C14.8647 21.5109 14.5652 21.3949 14.2148 21.3949C13.6893 21.3949 13.2785 21.6541 12.9826 22.1726C12.6867 22.6887 12.5387 23.419 12.5387 24.3636C12.5387 24.9934 12.605 25.5284 12.7376 25.9688C12.8701 26.4091 13.0607 26.7441 13.3093 26.9737C13.5603 27.2034 13.8621 27.3182 14.2148 27.3182ZM18.2205 28V20.7273H19.1012V27.2188H22.4819V28H18.2205Z" fill="black"/>
</svg>
