<svg width="29" height="38" viewBox="0 0 29 38" fill="none" xmlns="http://www.w3.org/2000/svg">
<path d="M27.5346 26.9787C27.5346 29.3826 27.1608 31.1566 26.5136 32.4718C25.8715 33.7767 24.9475 34.6564 23.7914 35.2588C22.6242 35.867 21.2065 36.1993 19.5772 36.3761C17.9482 36.5529 16.1414 36.5712 14.2042 36.5712C10.3015 36.5712 6.88045 36.4893 4.42342 35.2554C3.21772 34.6499 2.24913 33.767 1.5749 32.4629C0.895953 31.1497 0.5 29.3789 0.5 26.9787C0.5 17.3323 6.65561 9.72348 14.0173 9.72348C21.379 9.72348 27.5346 17.3323 27.5346 26.9787Z" stroke="#1B9910"/>
<rect x="8.69069" y="9.69072" width="10.6532" height="0.934487" rx="0.467244" fill="#1B9910" stroke="#1B9910" stroke-width="0.934487"/>
<path d="M14.8193 11.0077C14.3712 10.1571 7.67614 9.12923 7.19075 8.30001C6.90186 7.80648 6.58904 7.26774 6.45421 6.70767C6.1664 5.51216 5.98071 4.37908 5.98071 3.1477C5.98071 2.56263 6.11251 2.07237 6.23675 1.51327C6.32408 1.1203 7.60934 1.18315 7.87469 1.15903C8.75039 1.07942 9.78407 0.900749 10.656 1.07135C11.8804 1.3109 12.9116 2.04514 13.7355 2.9548C14.5448 3.84847 14.831 5.09888 14.2791 6.20261C14.1899 6.38106 14.1179 6.18349 14.1529 6.06933C14.36 5.39351 15.0871 4.80318 15.6049 4.37879C16.5308 3.61994 17.5518 3.03523 18.7054 2.70227C19.439 2.49053 20.5259 2.19644 21.2307 2.65317C21.9741 3.13492 22.3011 4.40724 22.3671 5.22055C22.4419 6.14173 22.0336 6.88374 21.371 7.50735C20.5871 8.24517 19.5276 8.75049 18.6212 9.32416C18.2179 9.57942 17.7794 9.78786 17.3446 9.98354C17.1208 10.0842 16.7485 10.0657 16.4958 10.1379C16.266 10.2035 16.0651 10.2734 15.8294 10.3273C15.4224 10.4203 15.0052 10.6359 14.8193 11.0077Z" stroke="#1B9910" stroke-linecap="round"/>
<path d="M8.58913 28.0994C8.12038 28.0994 7.70253 28.0189 7.33558 27.858C6.971 27.697 6.68099 27.4732 6.46555 27.1868C6.25249 26.898 6.13648 26.563 6.11754 26.1818H7.01243C7.03137 26.4162 7.11186 26.6186 7.25391 26.7891C7.39595 26.9571 7.58179 27.0874 7.81143 27.1797C8.04107 27.272 8.29557 27.3182 8.57493 27.3182C8.88743 27.3182 9.16442 27.2637 9.40589 27.1548C9.64737 27.0459 9.83677 26.8944 9.97408 26.7003C10.1114 26.5062 10.18 26.2812 10.18 26.0256C10.18 25.758 10.1138 25.5225 9.98118 25.3189C9.8486 25.1129 9.65447 24.9519 9.39879 24.8359C9.14311 24.7199 8.83061 24.6619 8.46129 24.6619H7.87891V23.8807H8.46129C8.75012 23.8807 9.00343 23.8286 9.22124 23.7244C9.44141 23.6203 9.61304 23.4735 9.73615 23.2841C9.86162 23.0947 9.92436 22.8722 9.92436 22.6165C9.92436 22.3703 9.86991 22.156 9.76101 21.9737C9.65211 21.7914 9.49822 21.6494 9.29936 21.5476C9.10286 21.4458 8.87086 21.3949 8.60334 21.3949C8.35239 21.3949 8.11565 21.4411 7.89311 21.5334C7.67294 21.6233 7.49302 21.7547 7.35334 21.9276C7.21366 22.098 7.1379 22.304 7.12607 22.5455H6.27379C6.288 22.1643 6.40282 21.8305 6.61825 21.544C6.83369 21.2552 7.11541 21.0303 7.46342 20.8693C7.8138 20.7083 8.19851 20.6278 8.61754 20.6278C9.06735 20.6278 9.45324 20.719 9.77521 20.9013C10.0972 21.0812 10.3446 21.3191 10.5174 21.6151C10.6902 21.911 10.7766 22.2306 10.7766 22.5739C10.7766 22.9834 10.6689 23.3326 10.4535 23.6214C10.2404 23.9103 9.9504 24.1103 9.58345 24.2216V24.2784C10.0427 24.3542 10.4014 24.5495 10.6594 24.8643C10.9175 25.1768 11.0465 25.5639 11.0465 26.0256C11.0465 26.4209 10.9388 26.776 10.7234 27.0909C10.5103 27.4034 10.2191 27.6496 9.84979 27.8295C9.48047 28.0095 9.06025 28.0994 8.58913 28.0994ZM14.8711 28.0994C14.3361 28.0994 13.8803 27.9538 13.5039 27.6626C13.1275 27.3691 12.8398 26.9441 12.641 26.3878C12.4421 25.8291 12.3427 25.1544 12.3427 24.3636C12.3427 23.5777 12.4421 22.9065 12.641 22.3501C12.8422 21.7914 13.131 21.3653 13.5075 21.0717C13.8862 20.7758 14.3408 20.6278 14.8711 20.6278C15.4014 20.6278 15.8548 20.7758 16.2312 21.0717C16.61 21.3653 16.8988 21.7914 17.0977 22.3501C17.2989 22.9065 17.3995 23.5777 17.3995 24.3636C17.3995 25.1544 17.3001 25.8291 17.1012 26.3878C16.9023 26.9441 16.6147 27.3691 16.2383 27.6626C15.8619 27.9538 15.4061 28.0994 14.8711 28.0994ZM14.8711 27.3182C15.4014 27.3182 15.8133 27.0625 16.1069 26.5511C16.4004 26.0398 16.5472 25.3106 16.5472 24.3636C16.5472 23.7339 16.4798 23.1977 16.3448 22.755C16.2122 22.3123 16.0205 21.9749 15.7695 21.7429C15.521 21.5109 15.2215 21.3949 14.8711 21.3949C14.3455 21.3949 13.9348 21.6541 13.6388 22.1726C13.3429 22.6887 13.195 23.419 13.195 24.3636C13.195 24.9934 13.2612 25.5284 13.3938 25.9688C13.5264 26.4091 13.717 26.7441 13.9656 26.9737C14.2165 27.2034 14.5183 27.3182 14.8711 27.3182ZM18.8768 28V20.7273H19.7575V27.2188H23.1381V28H18.8768Z" fill="black"/>
</svg>
