<svg width="29" height="38" viewBox="0 0 29 38" fill="none" xmlns="http://www.w3.org/2000/svg">
<path d="M27.5346 26.9787C27.5346 29.3826 27.1608 31.1566 26.5136 32.4718C25.8715 33.7767 24.9475 34.6564 23.7914 35.2588C22.6242 35.867 21.2065 36.1993 19.5772 36.3761C17.9482 36.5529 16.1414 36.5712 14.2042 36.5712C10.3015 36.5712 6.88045 36.4893 4.42342 35.2554C3.21772 34.6499 2.24913 33.767 1.5749 32.4629C0.895953 31.1497 0.5 29.3789 0.5 26.9787C0.5 17.3323 6.65561 9.72348 14.0173 9.72348C21.379 9.72348 27.5346 17.3323 27.5346 26.9787Z" stroke="#1B9910"/>
<rect x="8.69069" y="9.69072" width="10.6532" height="0.934487" rx="0.467244" fill="#1B9910" stroke="#1B9910" stroke-width="0.934487"/>
<path d="M14.8193 11.0077C14.3712 10.1571 7.67614 9.12923 7.19075 8.30001C6.90186 7.80648 6.58904 7.26774 6.45421 6.70767C6.1664 5.51216 5.98071 4.37908 5.98071 3.1477C5.98071 2.56263 6.11251 2.07237 6.23675 1.51327C6.32408 1.1203 7.60934 1.18315 7.87469 1.15903C8.75039 1.07942 9.78407 0.900749 10.656 1.07135C11.8804 1.3109 12.9116 2.04514 13.7355 2.9548C14.5448 3.84847 14.831 5.09888 14.2791 6.20261C14.1899 6.38106 14.1179 6.18349 14.1529 6.06933C14.36 5.39351 15.0871 4.80318 15.6049 4.37879C16.5308 3.61994 17.5518 3.03523 18.7054 2.70227C19.439 2.49053 20.5259 2.19644 21.2307 2.65317C21.9741 3.13492 22.3011 4.40724 22.3671 5.22055C22.4419 6.14173 22.0336 6.88374 21.371 7.50735C20.5871 8.24517 19.5276 8.75049 18.6212 9.32416C18.2179 9.57942 17.7794 9.78786 17.3446 9.98354C17.1208 10.0842 16.7485 10.0657 16.4958 10.1379C16.266 10.2035 16.0651 10.2734 15.8294 10.3273C15.4224 10.4203 15.0052 10.6359 14.8193 11.0077Z" stroke="#1B9910" stroke-linecap="round"/>
<path d="M8.04608 28.0994C7.62941 28.0994 7.25417 28.0166 6.92037 27.8509C6.58656 27.6851 6.31904 27.4579 6.11781 27.169C5.91658 26.8802 5.80649 26.5511 5.78755 26.1818H6.63983C6.67297 26.5109 6.82212 26.7831 7.08727 26.9986C7.35479 27.2116 7.67439 27.3182 8.04608 27.3182C8.34437 27.3182 8.60952 27.2483 8.84153 27.1087C9.07591 26.969 9.25938 26.7772 9.39196 26.5334C9.5269 26.2872 9.59437 26.009 9.59437 25.6989C9.59437 25.3816 9.52453 25.0987 9.38485 24.8501C9.24754 24.5992 9.05815 24.4015 8.81667 24.2571C8.5752 24.1127 8.29939 24.0393 7.98926 24.0369C7.76672 24.0346 7.53826 24.0689 7.30389 24.1399C7.06951 24.2086 6.87657 24.2973 6.72505 24.4062L5.90119 24.3068L6.34153 20.7273H10.1199V21.5085H7.08017L6.82449 23.6534H6.8671C7.01625 23.535 7.20327 23.4368 7.42818 23.3587C7.65308 23.2805 7.88746 23.2415 8.1313 23.2415C8.57638 23.2415 8.97292 23.348 9.32093 23.5611C9.67131 23.7718 9.94593 24.0606 10.1448 24.4276C10.346 24.7945 10.4466 25.2135 10.4466 25.6847C10.4466 26.1487 10.3425 26.563 10.1341 26.9276C9.92818 27.2898 9.64409 27.5762 9.28187 27.7869C8.91966 27.9953 8.50772 28.0994 8.04608 28.0994ZM14.2295 28.0994C13.6945 28.0994 13.2387 27.9538 12.8623 27.6626C12.4859 27.3691 12.1982 26.9441 11.9994 26.3878C11.8005 25.8291 11.7011 25.1544 11.7011 24.3636C11.7011 23.5777 11.8005 22.9065 11.9994 22.3501C12.2006 21.7914 12.4894 21.3653 12.8659 21.0717C13.2446 20.7758 13.6992 20.6278 14.2295 20.6278C14.7598 20.6278 15.2132 20.7758 15.5896 21.0717C15.9684 21.3653 16.2572 21.7914 16.4561 22.3501C16.6573 22.9065 16.7579 23.5777 16.7579 24.3636C16.7579 25.1544 16.6585 25.8291 16.4596 26.3878C16.2607 26.9441 15.9731 27.3691 15.5967 27.6626C15.2203 27.9538 14.7645 28.0994 14.2295 28.0994ZM14.2295 27.3182C14.7598 27.3182 15.1717 27.0625 15.4653 26.5511C15.7588 26.0398 15.9056 25.3106 15.9056 24.3636C15.9056 23.7339 15.8382 23.1977 15.7032 22.755C15.5706 22.3123 15.3789 21.9749 15.1279 21.7429C14.8794 21.5109 14.5799 21.3949 14.2295 21.3949C13.7039 21.3949 13.2932 21.6541 12.9972 22.1726C12.7013 22.6887 12.5534 23.419 12.5534 24.3636C12.5534 24.9934 12.6196 25.5284 12.7522 25.9688C12.8848 26.4091 13.0754 26.7441 13.324 26.9737C13.5749 27.2034 13.8767 27.3182 14.2295 27.3182ZM18.2352 28V20.7273H19.1159V27.2188H22.4965V28H18.2352Z" fill="black"/>
</svg>
