<svg width="29" height="38" viewBox="0 0 29 38" fill="none" xmlns="http://www.w3.org/2000/svg">
<path d="M27.5346 26.9787C27.5346 29.3826 27.1608 31.1566 26.5136 32.4718C25.8715 33.7767 24.9475 34.6564 23.7914 35.2588C22.6242 35.867 21.2065 36.1993 19.5772 36.3761C17.9482 36.5529 16.1414 36.5712 14.2042 36.5712C10.3015 36.5712 6.88045 36.4893 4.42342 35.2554C3.21772 34.6499 2.24913 33.767 1.5749 32.4629C0.895953 31.1497 0.5 29.3789 0.5 26.9787C0.5 17.3323 6.65561 9.72348 14.0173 9.72348C21.379 9.72348 27.5346 17.3323 27.5346 26.9787Z" stroke="#1B9910"/>
<rect x="8.69075" y="9.69072" width="10.6532" height="0.934487" rx="0.467244" stroke="#1B9910" stroke-width="0.934487"/>
<path d="M14.8193 11.0077C14.3712 10.1571 7.67614 9.12923 7.19075 8.30001C6.90186 7.80648 6.58904 7.26774 6.45421 6.70767C6.1664 5.51216 5.98071 4.37908 5.98071 3.1477C5.98071 2.56263 6.11251 2.07237 6.23675 1.51327C6.32408 1.1203 7.60934 1.18315 7.87469 1.15903C8.75039 1.07942 9.78407 0.900749 10.656 1.07135C11.8804 1.3109 12.9116 2.04514 13.7355 2.9548C14.5448 3.84847 14.831 5.09888 14.2791 6.20261C14.1899 6.38106 14.1179 6.18349 14.1529 6.06933C14.36 5.39351 15.0871 4.80318 15.6049 4.37879C16.5308 3.61994 17.5518 3.03523 18.7054 2.70227C19.439 2.49053 20.5259 2.19644 21.2307 2.65317C21.9741 3.13492 22.3011 4.40724 22.3671 5.22055C22.4419 6.14173 22.0336 6.88374 21.371 7.50735C20.5871 8.24517 19.5276 8.75049 18.6212 9.32416C18.2179 9.57942 17.7794 9.78786 17.3446 9.98354C17.1208 10.0842 16.7485 10.0657 16.4958 10.1379C16.266 10.2035 16.0651 10.2734 15.8294 10.3273C15.4224 10.4203 15.0052 10.6359 14.8193 11.0077Z" stroke="#1B9910" stroke-linecap="round"/>
<path d="M12.1711 28.0994C11.7544 28.0994 11.3792 28.0166 11.0454 27.8509C10.7116 27.6851 10.444 27.4579 10.2428 27.169C10.0416 26.8802 9.93149 26.5511 9.91255 26.1818H10.7648C10.798 26.5109 10.9471 26.7831 11.2123 26.9986C11.4798 27.2116 11.7994 27.3182 12.1711 27.3182C12.4694 27.3182 12.7345 27.2483 12.9665 27.1087C13.2009 26.969 13.3844 26.7772 13.517 26.5334C13.6519 26.2872 13.7194 26.009 13.7194 25.6989C13.7194 25.3816 13.6495 25.0987 13.5099 24.8501C13.3725 24.5992 13.1832 24.4015 12.9417 24.2571C12.7002 24.1127 12.4244 24.0393 12.1143 24.0369C11.8917 24.0346 11.6633 24.0689 11.4289 24.1399C11.1945 24.2086 11.0016 24.2973 10.8501 24.4062L10.0262 24.3068L10.4665 20.7273H14.2449V21.5085H11.2052L10.9495 23.6534H10.9921C11.1412 23.535 11.3283 23.4368 11.5532 23.3587C11.7781 23.2805 12.0125 23.2415 12.2563 23.2415C12.7014 23.2415 13.0979 23.348 13.4459 23.5611C13.7963 23.7718 14.0709 24.0606 14.2698 24.4276C14.471 24.7945 14.5716 25.2135 14.5716 25.6847C14.5716 26.1487 14.4675 26.563 14.2591 26.9276C14.0532 27.2898 13.7691 27.5762 13.4069 27.7869C13.0447 27.9953 12.6327 28.0994 12.1711 28.0994ZM16.1102 28V20.7273H16.9909V27.2188H20.3715V28H16.1102Z" fill="black"/>
</svg>
