<svg width="29" height="38" viewBox="0 0 29 38" fill="none" xmlns="http://www.w3.org/2000/svg">
<path d="M27.5346 26.9787C27.5346 29.3826 27.1608 31.1566 26.5136 32.4718C25.8715 33.7767 24.9475 34.6564 23.7914 35.2588C22.6242 35.867 21.2065 36.1993 19.5772 36.3761C17.9482 36.5529 16.1414 36.5712 14.2042 36.5712C10.3015 36.5712 6.88045 36.4893 4.42342 35.2554C3.21772 34.6499 2.24913 33.767 1.5749 32.4629C0.895953 31.1497 0.5 29.3789 0.5 26.9787C0.5 17.3323 6.65561 9.72348 14.0173 9.72348C21.379 9.72348 27.5346 17.3323 27.5346 26.9787Z" stroke="#1B9910"/>
<rect x="8.69069" y="9.69072" width="10.6532" height="0.934487" rx="0.467244" fill="#1B9910" stroke="#1B9910" stroke-width="0.934487"/>
<path d="M14.8193 11.0077C14.3712 10.1571 7.67614 9.12923 7.19075 8.30001C6.90186 7.80648 6.58904 7.26774 6.45421 6.70767C6.1664 5.51216 5.98071 4.37908 5.98071 3.1477C5.98071 2.56263 6.11251 2.07237 6.23675 1.51327C6.32408 1.1203 7.60934 1.18315 7.87469 1.15903C8.75039 1.07942 9.78407 0.900749 10.656 1.07135C11.8804 1.3109 12.9116 2.04514 13.7355 2.9548C14.5448 3.84847 14.831 5.09888 14.2791 6.20261C14.1899 6.38106 14.1179 6.18349 14.1529 6.06933C14.36 5.39351 15.0871 4.80318 15.6049 4.37879C16.5308 3.61994 17.5518 3.03523 18.7054 2.70227C19.439 2.49053 20.5259 2.19644 21.2307 2.65317C21.9741 3.13492 22.3011 4.40724 22.3671 5.22055C22.4419 6.14173 22.0336 6.88374 21.371 7.50735C20.5871 8.24517 19.5276 8.75049 18.6212 9.32416C18.2179 9.57942 17.7794 9.78786 17.3446 9.98354C17.1208 10.0842 16.7485 10.0657 16.4958 10.1379C16.266 10.2035 16.0651 10.2734 15.8294 10.3273C15.4224 10.4203 15.0052 10.6359 14.8193 11.0077Z" stroke="#1B9910" stroke-linecap="round"/>
<path d="M6.318 28L9.57085 21.5653V21.5085H5.82085V20.7273H10.4799V21.5511L7.2413 28H6.318ZM13.9787 28.0994C13.562 28.0994 13.1868 28.0166 12.853 27.8509C12.5192 27.6851 12.2517 27.4579 12.0504 27.169C11.8492 26.8802 11.7391 26.5511 11.7202 26.1818H12.5724C12.6056 26.5109 12.7547 26.7831 13.0199 26.9986C13.2874 27.2116 13.607 27.3182 13.9787 27.3182C14.277 27.3182 14.5421 27.2483 14.7741 27.1087C15.0085 26.969 15.192 26.7772 15.3246 26.5334C15.4595 26.2872 15.527 26.009 15.527 25.6989C15.527 25.3816 15.4571 25.0987 15.3175 24.8501C15.1802 24.5992 14.9908 24.4015 14.7493 24.2571C14.5078 24.1127 14.232 24.0393 13.9219 24.0369C13.6993 24.0346 13.4709 24.0689 13.2365 24.1399C13.0021 24.2086 12.8092 24.2973 12.6577 24.4062L11.8338 24.3068L12.2741 20.7273H16.0526V21.5085H13.0128L12.7571 23.6534H12.7997C12.9489 23.535 13.1359 23.4368 13.3608 23.3587C13.5857 23.2805 13.8201 23.2415 14.0639 23.2415C14.509 23.2415 14.9055 23.348 15.2536 23.5611C15.6039 23.7718 15.8786 24.0606 16.0774 24.4276C16.2786 24.7945 16.3793 25.2135 16.3793 25.6847C16.3793 26.1487 16.2751 26.563 16.0668 26.9276C15.8608 27.2898 15.5767 27.5762 15.2145 27.7869C14.8523 27.9953 14.4403 28.0994 13.9787 28.0994ZM17.9178 28V20.7273H18.7985V27.2188H22.1792V28H17.9178Z" fill="black"/>
</svg>
