<svg width="29" height="38" viewBox="0 0 29 38" fill="none" xmlns="http://www.w3.org/2000/svg">
<path d="M27.5346 26.9787C27.5346 29.3826 27.1608 31.1566 26.5136 32.4718C25.8715 33.7767 24.9475 34.6564 23.7914 35.2588C22.6242 35.867 21.2065 36.1993 19.5772 36.3761C17.9482 36.5529 16.1414 36.5712 14.2042 36.5712C10.3015 36.5712 6.88045 36.4893 4.42342 35.2554C3.21772 34.6499 2.24913 33.767 1.5749 32.4629C0.895953 31.1497 0.5 29.3789 0.5 26.9787C0.5 17.3323 6.65561 9.72348 14.0173 9.72348C21.379 9.72348 27.5346 17.3323 27.5346 26.9787Z" stroke="#992010"/>
<rect x="8.69069" y="9.69072" width="10.6532" height="0.934487" rx="0.467244" fill="#1B9910" stroke="#992010" stroke-width="0.934487"/>
<path d="M14.8193 11.0077C14.3712 10.1571 7.67614 9.12923 7.19075 8.30001C6.90186 7.80648 6.58904 7.26774 6.45421 6.70767C6.1664 5.51216 5.98071 4.37908 5.98071 3.1477C5.98071 2.56263 6.11251 2.07237 6.23675 1.51327C6.32408 1.1203 7.60934 1.18315 7.87469 1.15903C8.75039 1.07942 9.78407 0.900749 10.656 1.07135C11.8804 1.3109 12.9116 2.04514 13.7355 2.9548C14.5448 3.84847 14.831 5.09888 14.2791 6.20261C14.1899 6.38106 14.1179 6.18349 14.1529 6.06933C14.36 5.39351 15.0871 4.80318 15.6049 4.37879C16.5308 3.61994 17.5518 3.03523 18.7054 2.70227C19.439 2.49053 20.5259 2.19644 21.2307 2.65317C21.9741 3.13492 22.3011 4.40724 22.3671 5.22055C22.4419 6.14173 22.0336 6.88374 21.371 7.50735C20.5871 8.24517 19.5276 8.75049 18.6212 9.32416C18.2179 9.57942 17.7794 9.78786 17.3446 9.98354C17.1208 10.0842 16.7485 10.0657 16.4958 10.1379C16.266 10.2035 16.0651 10.2734 15.8294 10.3273C15.4224 10.4203 15.0052 10.6359 14.8193 11.0077Z" stroke="#992010" stroke-linecap="round"/>
<path d="M12.2002 20.7273L12.1292 25.9545H11.3053L11.2343 20.7273H12.2002ZM11.7172 28.0568C11.5421 28.0568 11.3917 27.9941 11.2662 27.8686C11.1408 27.7431 11.078 27.5928 11.078 27.4176C11.078 27.2424 11.1408 27.0921 11.2662 26.9666C11.3917 26.8411 11.5421 26.7784 11.7172 26.7784C11.8924 26.7784 12.0428 26.8411 12.1682 26.9666C12.2937 27.0921 12.3564 27.2424 12.3564 27.4176C12.3564 27.5336 12.3269 27.6402 12.2677 27.7372C12.2108 27.8343 12.1339 27.9124 12.0368 27.9716C11.9421 28.0284 11.8356 28.0568 11.7172 28.0568ZM14.9834 20.7273L14.9124 25.9545H14.0885L14.0175 20.7273H14.9834ZM14.5004 28.0568C14.3253 28.0568 14.1749 27.9941 14.0494 27.8686C13.924 27.7431 13.8612 27.5928 13.8612 27.4176C13.8612 27.2424 13.924 27.0921 14.0494 26.9666C14.1749 26.8411 14.3253 26.7784 14.5004 26.7784C14.6756 26.7784 14.826 26.8411 14.9514 26.9666C15.0769 27.0921 15.1396 27.2424 15.1396 27.4176C15.1396 27.5336 15.1101 27.6402 15.0509 27.7372C14.9941 27.8343 14.9171 27.9124 14.82 27.9716C14.7253 28.0284 14.6188 28.0568 14.5004 28.0568ZM17.7666 20.7273L17.6956 25.9545H16.8717L16.8007 20.7273H17.7666ZM17.2836 28.0568C17.1085 28.0568 16.9581 27.9941 16.8327 27.8686C16.7072 27.7431 16.6444 27.5928 16.6444 27.4176C16.6444 27.2424 16.7072 27.0921 16.8327 26.9666C16.9581 26.8411 17.1085 26.7784 17.2836 26.7784C17.4588 26.7784 17.6092 26.8411 17.7346 26.9666C17.8601 27.0921 17.9229 27.2424 17.9229 27.4176C17.9229 27.5336 17.8933 27.6402 17.8341 27.7372C17.7773 27.8343 17.7003 27.9124 17.6032 27.9716C17.5086 28.0284 17.402 28.0568 17.2836 28.0568Z" fill="#992010"/>
</svg>
