<svg width="29" height="38" viewBox="0 0 29 38" fill="none" xmlns="http://www.w3.org/2000/svg">
<path d="M27.5346 26.9787C27.5346 29.3826 27.1608 31.1566 26.5136 32.4718C25.8715 33.7767 24.9475 34.6564 23.7914 35.2588C22.6242 35.867 21.2065 36.1993 19.5772 36.3761C17.9482 36.5529 16.1414 36.5712 14.2042 36.5712C10.3015 36.5712 6.88045 36.4893 4.42342 35.2554C3.21772 34.6499 2.24913 33.767 1.5749 32.4629C0.895953 31.1497 0.5 29.3789 0.5 26.9787C0.5 17.3323 6.65561 9.72348 14.0173 9.72348C21.379 9.72348 27.5346 17.3323 27.5346 26.9787Z" stroke="#992010"/>
<rect x="8.69069" y="9.69072" width="10.6532" height="0.934487" rx="0.467244" fill="#1B9910" stroke="#992010" stroke-width="0.934487"/>
<path d="M14.8193 11.0077C14.3712 10.1571 7.67614 9.12923 7.19075 8.30001C6.90186 7.80648 6.58904 7.26774 6.45421 6.70767C6.1664 5.51216 5.98071 4.37908 5.98071 3.1477C5.98071 2.56263 6.11251 2.07237 6.23675 1.51327C6.32408 1.1203 7.60934 1.18315 7.87469 1.15903C8.75039 1.07942 9.78407 0.900749 10.656 1.07135C11.8804 1.3109 12.9116 2.04514 13.7355 2.9548C14.5448 3.84847 14.831 5.09888 14.2791 6.20261C14.1899 6.38106 14.1179 6.18349 14.1529 6.06933C14.36 5.39351 15.0871 4.80318 15.6049 4.37879C16.5308 3.61994 17.5518 3.03523 18.7054 2.70227C19.439 2.49053 20.5259 2.19644 21.2307 2.65317C21.9741 3.13492 22.3011 4.40724 22.3671 5.22055C22.4419 6.14173 22.0336 6.88374 21.371 7.50735C20.5871 8.24517 19.5276 8.75049 18.6212 9.32416C18.2179 9.57942 17.7794 9.78786 17.3446 9.98354C17.1208 10.0842 16.7485 10.0657 16.4958 10.1379C16.266 10.2035 16.0651 10.2734 15.8294 10.3273C15.4224 10.4203 15.0052 10.6359 14.8193 11.0077Z" stroke="#992010" stroke-linecap="round"/>
<path d="M10.0637 28.1136C9.53817 28.1136 9.08481 27.9976 8.70366 27.7656C8.32487 27.5312 8.03249 27.2045 7.82653 26.7855C7.62293 26.3641 7.52113 25.8741 7.52113 25.3153C7.52113 24.7566 7.62293 24.2642 7.82653 23.8381C8.03249 23.4096 8.31895 23.0758 8.6859 22.8366C9.05522 22.5952 9.48609 22.4744 9.97852 22.4744C10.2626 22.4744 10.5431 22.5218 10.8201 22.6165C11.0971 22.7112 11.3493 22.8651 11.5765 23.0781C11.8038 23.2888 11.9849 23.5682 12.1199 23.9162C12.2548 24.2642 12.3223 24.6927 12.3223 25.2017V25.5568H8.11772V24.8324H11.47C11.47 24.5246 11.4084 24.25 11.2853 24.0085C11.1646 23.767 10.9918 23.5765 10.7669 23.4368C10.5443 23.2971 10.2815 23.2273 9.97852 23.2273C9.64471 23.2273 9.35588 23.3101 9.11204 23.4759C8.87056 23.6392 8.68472 23.8523 8.55451 24.1151C8.4243 24.3778 8.3592 24.6596 8.3592 24.9602V25.4432C8.3592 25.8551 8.43022 26.2043 8.57227 26.4908C8.71668 26.7749 8.91673 26.9915 9.17241 27.1406C9.42809 27.2874 9.7252 27.3608 10.0637 27.3608C10.2839 27.3608 10.4828 27.33 10.6603 27.2685C10.8403 27.2045 10.9953 27.1098 11.1255 26.9844C11.2557 26.8565 11.3564 26.6979 11.4274 26.5085L12.237 26.7358C12.1518 27.0104 12.0086 27.2519 11.8074 27.4602C11.6061 27.6662 11.3575 27.8272 11.0616 27.9432C10.7657 28.0568 10.4331 28.1136 10.0637 28.1136ZM15.9693 22.5455V23.2557H13.1426V22.5455H15.9693ZM13.9664 21.2386H14.8045V26.4375C14.8045 26.6742 14.8388 26.8518 14.9075 26.9702C14.9785 27.0862 15.0685 27.1643 15.1774 27.2045C15.2886 27.2424 15.4058 27.2614 15.5289 27.2614C15.6213 27.2614 15.697 27.2566 15.7562 27.2472C15.8154 27.2353 15.8627 27.2259 15.8983 27.2188L16.0687 27.9716C16.0119 27.9929 15.9326 28.0142 15.8308 28.0355C15.729 28.0592 15.6 28.071 15.4437 28.071C15.207 28.071 14.975 28.0201 14.7477 27.9183C14.5228 27.8165 14.3358 27.6615 14.1866 27.4531C14.0398 27.2448 13.9664 26.982 13.9664 26.6648V21.2386ZM19.3873 28.1136C18.8759 28.1136 18.4355 27.9929 18.0662 27.7514C17.6969 27.5099 17.4128 27.1773 17.214 26.7536C17.0151 26.3298 16.9157 25.8456 16.9157 25.3011C16.9157 24.7472 17.0175 24.2583 17.2211 23.8345C17.427 23.4084 17.7135 23.0758 18.0804 22.8366C18.4498 22.5952 18.8806 22.4744 19.373 22.4744C19.7566 22.4744 20.1022 22.5455 20.41 22.6875C20.7177 22.8295 20.9699 23.0284 21.1664 23.2841C21.3629 23.5398 21.4848 23.8381 21.5321 24.179H20.6941C20.6301 23.9304 20.4881 23.7102 20.2679 23.5185C20.0501 23.3243 19.7566 23.2273 19.3873 23.2273C19.0605 23.2273 18.7741 23.3125 18.5279 23.483C18.284 23.651 18.0935 23.889 17.9561 24.1967C17.8212 24.5021 17.7537 24.8608 17.7537 25.2727C17.7537 25.6941 17.82 26.0611 17.9526 26.3736C18.0875 26.6861 18.2769 26.9287 18.5208 27.1016C18.767 27.2744 19.0558 27.3608 19.3873 27.3608C19.6051 27.3608 19.8027 27.3229 19.9803 27.2472C20.1578 27.1714 20.3082 27.0625 20.4313 26.9205C20.5544 26.7784 20.642 26.608 20.6941 26.4091H21.5321C21.4848 26.7311 21.3676 27.0211 21.1806 27.2791C20.9959 27.5348 20.7509 27.7384 20.4455 27.8899C20.1425 28.0391 19.7897 28.1136 19.3873 28.1136Z" fill="#992010"/>
</svg>
